<svg id="visual" viewBox="0 0 900 600" width="900" height="600" xmlns="http://www.w3.org/2000/svg" xmlns:xlink="http://www.w3.org/1999/xlink" version="1.1"><path d="M0 205L82 121L164 145L245 139L327 253L409 163L491 169L573 157L655 235L736 97L818 205L900 169L900 0L818 0L736 0L655 0L573 0L491 0L409 0L327 0L245 0L164 0L82 0L0 0Z" fill="#00cc8e"></path><path d="M0 289L82 163L164 229L245 211L327 301L409 277L491 247L573 259L655 355L736 199L818 325L900 289L900 167L818 203L736 95L655 233L573 155L491 167L409 161L327 251L245 137L164 143L82 119L0 203Z" fill="#00b98a"></path><path d="M0 451L82 367L164 463L245 415L327 385L409 433L491 391L573 481L655 439L736 463L818 421L900 439L900 287L818 323L736 197L655 353L573 257L491 245L409 275L327 299L245 209L164 227L82 161L0 287Z" fill="#00a784"></path><path d="M0 523L82 445L164 505L245 493L327 439L409 511L491 445L573 547L655 487L736 541L818 463L900 475L900 437L818 419L736 461L655 437L573 479L491 389L409 431L327 383L245 413L164 461L82 365L0 449Z" fill="#00957c"></path><path d="M0 601L82 601L164 601L245 601L327 601L409 601L491 601L573 601L655 601L736 601L818 601L900 601L900 473L818 461L736 539L655 485L573 545L491 443L409 509L327 437L245 491L164 503L82 443L0 521Z" fill="#038373"></path></svg>