<svg id="visual" viewBox="0 0 1600 1800" width="1600" height="1800" xmlns="http://www.w3.org/2000/svg" xmlns:xlink="http://www.w3.org/1999/xlink" version="1.1"><rect x="0" y="0" width="1600" height="1800" fill="#ffffff"></rect><defs><linearGradient id="grad1_0" x1="0%" y1="0%" x2="100%" y2="100%"><stop offset="30%" stop-color="#001220" stop-opacity="1"></stop><stop offset="70%" stop-color="#001220" stop-opacity="1"></stop></linearGradient></defs><defs><linearGradient id="grad1_1" x1="0%" y1="0%" x2="100%" y2="100%"><stop offset="30%" stop-color="#001220" stop-opacity="1"></stop><stop offset="70%" stop-color="#777e87" stop-opacity="1"></stop></linearGradient></defs><defs><linearGradient id="grad1_2" x1="0%" y1="0%" x2="100%" y2="100%"><stop offset="30%" stop-color="#ffffff" stop-opacity="1"></stop><stop offset="70%" stop-color="#777e87" stop-opacity="1"></stop></linearGradient></defs><defs><linearGradient id="grad2_0" x1="0%" y1="0%" x2="100%" y2="100%"><stop offset="30%" stop-color="#001220" stop-opacity="1"></stop><stop offset="70%" stop-color="#001220" stop-opacity="1"></stop></linearGradient></defs><defs><linearGradient id="grad2_1" x1="0%" y1="0%" x2="100%" y2="100%"><stop offset="30%" stop-color="#777e87" stop-opacity="1"></stop><stop offset="70%" stop-color="#001220" stop-opacity="1"></stop></linearGradient></defs><defs><linearGradient id="grad2_2" x1="0%" y1="0%" x2="100%" y2="100%"><stop offset="30%" stop-color="#777e87" stop-opacity="1"></stop><stop offset="70%" stop-color="#ffffff" stop-opacity="1"></stop></linearGradient></defs><g transform="translate(1600, 0)"><path d="M0 1144C-152 1132.5 -304.1 1121 -437.8 1056.9C-571.5 992.7 -686.8 875.8 -750.9 750.9C-815.1 626 -828.1 493.1 -885.1 366.6C-942 240.1 -1043 120.1 -1144 0L0 0Z" fill="#b9bcc1"></path><path d="M0 762.6C-101.4 755 -202.7 747.4 -291.8 704.6C-381 661.8 -457.9 583.9 -500.6 500.6C-543.4 417.4 -552.1 328.7 -590.1 244.4C-628 160.1 -695.3 80 -762.6 0L0 0Z" fill="#3a4551"></path><path d="M0 381.3C-50.7 377.5 -101.4 373.7 -145.9 352.3C-190.5 330.9 -228.9 291.9 -250.3 250.3C-271.7 208.7 -276 164.4 -295 122.2C-314 80 -347.7 40 -381.3 0L0 0Z" fill="#001220"></path></g><g transform="translate(0, 1800)"><path d="M0 -1144C117.6 -1051.1 235.3 -958.2 379.6 -916.5C524 -874.8 695.1 -884.2 808.9 -808.9C922.7 -733.6 979.2 -573.7 1025.5 -424.8C1071.8 -275.9 1107.9 -137.9 1144 0L0 0Z" fill="#b9bcc1"></path><path d="M0 -762.6C78.4 -700.7 156.8 -638.8 253.1 -611C349.3 -583.2 463.4 -589.4 539.3 -539.3C615.1 -489.1 652.8 -382.5 683.7 -283.2C714.5 -183.9 738.6 -92 762.6 0L0 0Z" fill="#3a4551"></path><path d="M0 -381.3C39.2 -350.4 78.4 -319.4 126.5 -305.5C174.7 -291.6 231.7 -294.7 269.6 -269.6C307.6 -244.5 326.4 -191.2 341.8 -141.6C357.3 -92 369.3 -46 381.3 0L0 0Z" fill="#001220"></path></g></svg>