<svg id="visual" viewBox="0 0 2700 1800" width="2700" height="1800" xmlns="http://www.w3.org/2000/svg" xmlns:xlink="http://www.w3.org/1999/xlink" version="1.1"><rect x="0" y="0" width="2700" height="1800" fill="#002233"></rect><path d="M0 417L75 564C150 711 300 1005 450 1127.8C600 1250.7 750 1202.3 900 1157.8C1050 1113.3 1200 1072.7 1350 1005C1500 937.3 1650 842.7 1800 787C1950 731.3 2100 714.7 2250 773.7C2400 832.7 2550 967.3 2625 1034.7L2700 1102L2700 1801L2625 1801C2550 1801 2400 1801 2250 1801C2100 1801 1950 1801 1800 1801C1650 1801 1500 1801 1350 1801C1200 1801 1050 1801 900 1801C750 1801 600 1801 450 1801C300 1801 150 1801 75 1801L0 1801Z" fill="#0066FF" stroke-linecap="round" stroke-linejoin="miter"></path></svg>